 <svg version="1.0" xmlns="http://www.w3.org/2000/svg" width="700.000000pt" height="700.000000pt" viewBox="0 0 700.000000 700.000000" preserveAspectRatio="xMidYMid meet">
<metadata>
Created by potrace 1.12, written by Peter Selinger 2001-2015
</metadata>
<g transform="translate(0.000000,700.000000) scale(0.100000,-0.100000)" fill="#000000" stroke="none">
<path d="M5725 6550 c-110 -38 -290 -100 -400 -137 -134 -45 -209 -76 -227
-93 -22 -21 -33 -53 -66 -190 -22 -91 -43 -180 -47 -197 -4 -18 -10 -35 -15
-38 -7 -4 -181 -58 -335 -103 -38 -11 -110 -30 -160 -42 -289 -69 -624 -184
-860 -295 -314 -147 -509 -305 -597 -482 l-41 -83 -8 -199 c-9 -227 -21 -340
-49 -459 -29 -121 -30 -123 -82 -105 -69 24 -156 12 -268 -36 -243 -106 -529
-171 -685 -156 -113 11 -252 52 -370 109 -165 80 -195 88 -310 88 -338 0 -616
-250 -785 -708 -52 -141 -54 -203 -9 -282 l31 -54 -16 -112 c-52 -373 -14
-631 110 -748 47 -44 93 -59 130 -43 40 17 64 51 64 92 0 25 -9 41 -40 70 -48
46 -64 84 -80 186 -14 85 -8 261 13 401 12 79 12 80 46 88 77 21 133 73 211
199 46 74 224 269 235 257 6 -5 -31 -228 -85 -513 -94 -496 -101 -550 -88
-644 18 -139 126 -284 268 -364 54 -30 341 -225 580 -394 30 -22 174 -122 320
-222 146 -101 269 -187 273 -191 5 -4 -40 -149 -99 -321 -59 -173 -109 -332
-111 -354 -4 -34 0 -45 23 -68 l27 -27 2174 0 2174 0 24 25 25 24 0 2921 c0
2100 -3 2927 -11 2942 -13 24 -629 328 -662 327 -12 0 -112 -31 -222 -69z
m367 -210 c84 -39 195 -89 246 -112 l92 -41 0 -1098 0 -1098 -205 -128 c-112
-70 -368 -230 -567 -355 -200 -125 -412 -258 -473 -296 -60 -38 -116 -80 -123
-93 -11 -21 -138 -523 -538 -2124 -52 -209 -99 -390 -104 -402 l-10 -23 -1010
0 c-555 0 -1010 2 -1010 5 0 3 27 85 61 183 34 97 69 202 79 232 10 30 59 174
110 320 80 230 213 617 366 1065 399 1165 418 1218 449 1235 17 9 140 74 275
144 824 431 1418 751 1448 782 17 19 32 44 32 56 0 39 -36 85 -75 98 -33 11
-41 9 -83 -12 -51 -26 -649 -351 -719 -389 -23 -13 -44 -22 -46 -19 -3 3 14
73 38 155 24 83 78 269 120 415 42 146 107 373 145 504 38 132 75 245 82 251
11 11 79 32 341 106 80 23 110 40 125 74 6 14 30 100 52 192 22 93 44 178 49
189 7 17 55 37 223 95 117 40 267 92 333 115 66 23 125 42 132 43 6 1 80 -31
165 -69z m-1642 -796 c0 -5 -120 -427 -309 -1083 -49 -173 -96 -320 -103 -327
-7 -6 -152 -85 -323 -174 -425 -222 -429 -225 -444 -257 -7 -15 -51 -138 -98
-273 -46 -135 -100 -288 -118 -340 -19 -52 -57 -164 -86 -247 -28 -84 -56
-153 -61 -153 -5 0 -77 57 -161 127 -181 151 -207 170 -261 184 -39 11 -245 3
-453 -17 -50 -5 -63 -3 -63 7 0 8 36 93 80 189 l79 174 105 23 c58 12 149 39
203 59 196 73 467 225 523 292 31 38 60 115 60 161 0 13 12 54 26 90 68 170
101 368 112 677 8 207 8 211 37 259 89 153 330 311 695 455 145 57 178 68 400
135 155 47 160 48 160 39z m-3051 -1653 c208 -95 363 -138 536 -148 83 -5 122
-1 230 20 168 34 323 79 444 129 155 64 167 67 195 38 24 -25 30 -39 27 -71
-2 -30 -251 -172 -417 -238 -112 -44 -231 -77 -318 -87 -38 -5 -67 -14 -82
-28 -24 -21 -246 -515 -275 -611 -13 -43 6 -92 43 -111 28 -15 54 -15 292 0
144 9 290 18 326 21 l66 6 81 -68 c218 -183 286 -239 301 -250 14 -12 13 -21
-13 -104 -16 -50 -34 -93 -40 -95 -6 -3 -84 35 -175 83 l-165 88 -380 -3
c-409 -4 -413 -4 -437 -57 -25 -56 -9 -74 339 -395 182 -168 377 -348 434
-401 l104 -97 -28 -86 c-16 -48 -32 -86 -36 -84 -3 2 -38 25 -76 51 -441 305
-897 618 -1010 692 -149 98 -196 142 -227 213 -23 51 -21 118 6 262 9 47 23
121 31 165 163 932 165 944 153 970 -14 30 -55 55 -91 55 -68 0 -241 -96 -341
-190 -58 -54 -155 -177 -220 -277 -46 -73 -68 -87 -94 -61 -21 21 -13 59 33
173 125 305 275 472 475 529 125 35 172 30 309 -33z m5031 -1731 l0 -1590
-905 0 c-498 0 -905 2 -905 4 0 2 33 139 74 303 41 164 149 602 241 973 92
371 195 784 229 917 l61 242 590 370 c325 203 596 370 603 370 9 1 12 -323 12
-1589z m-3896 34 c86 -47 158 -90 162 -95 6 -10 -113 -376 -125 -383 -3 -3
-141 120 -306 272 l-299 277 124 5 c69 3 162 7 207 8 l82 2 155 -86z"></path>
<path d="M1697 4786 c-82 -34 -134 -73 -177 -131 -67 -89 -90 -155 -90 -256 0
-120 43 -222 129 -302 183 -171 468 -147 616 54 158 215 88 503 -153 621 -60
30 -77 33 -167 36 -87 2 -107 -1 -158 -22z m260 -206 c74 -42 108 -103 108
-191 0 -56 -5 -73 -30 -115 -19 -29 -49 -60 -78 -78 -120 -74 -281 -11 -327
128 -27 84 12 198 87 248 50 34 58 36 128 37 49 1 69 -5 112 -29z"></path>
</g>
</svg>